<!DOCTYPE svg PUBLIC "-//W3C//DTD SVG 1.1//EN" "http://www.w3.org/Graphics/SVG/1.1/DTD/svg11.dtd">
<!-- Uploaded to: SVG Repo, www.svgrepo.com, Transformed by: SVG Repo Mixer Tools -->
<svg fill="#d9326f" height="800px" width="800px" version="1.1" id="Layer_1" xmlns="http://www.w3.org/2000/svg" xmlns:xlink="http://www.w3.org/1999/xlink" viewBox="0 0 512.011 512.011" xml:space="preserve" stroke="#d9326f">
<g id="SVGRepo_bgCarrier" stroke-width="0"/>
<g id="SVGRepo_tracerCarrier" stroke-linecap="round" stroke-linejoin="round"/>
<g id="SVGRepo_iconCarrier"> <g> <g> <g> <path d="M447.868,83.015c-0.758-7.4-5.085-13.133-10.81-16.3c-0.158-0.089-0.318-0.174-0.479-0.259 c-0.392-0.205-0.791-0.395-1.195-0.576c-0.18-0.081-0.356-0.169-0.539-0.245c-0.534-0.222-1.078-0.417-1.628-0.596 c-0.18-0.058-0.362-0.109-0.543-0.162c-0.528-0.157-1.061-0.295-1.6-0.411c-0.052-0.011-0.103-0.024-0.155-0.035 c-1.806-0.378-3.662-0.525-5.523-0.426h-84.062c-11.782,0-21.333,9.551-21.333,21.333c0,11.782,9.551,21.333,21.333,21.333h33.83 l-76.497,76.497l-48.915-48.915c-8.331-8.331-21.839-8.331-30.17,0l-64,64c-8.331,8.331-8.331,21.839,0,30.17 s21.839,8.331,30.17,0l48.915-48.915l48.915,48.915c8.331,8.331,21.839,8.331,30.17,0l91.582-91.582v33.83 c0,11.782,9.551,21.333,21.333,21.333S448,182.454,448,170.672V85.339c0-0.715-0.043-1.411-0.106-2.098 C447.887,83.165,447.876,83.09,447.868,83.015z"/> <path d="M512,319.794V59.547c0-32.881-26.661-59.541-59.541-59.541H59.541C26.661,0.005,0,26.666,0,59.547v260.459 c0,0.071,0.01,0.14,0.011,0.211v46.914c0,32.881,26.64,59.541,59.52,59.541h105.146l-10.667,42.667h-4.677 c-11.782,0-21.333,9.551-21.333,21.333s9.551,21.333,21.333,21.333h21.333h170.667h21.333c11.782,0,21.333-9.551,21.333-21.333 s-9.551-21.333-21.333-21.333h-4.677l-10.667-42.667h105.146c32.881,0,59.541-26.661,59.541-59.541v-47.125 C512.011,319.934,512.001,319.865,512,319.794z M42.667,59.547c0-9.317,7.558-16.875,16.875-16.875h392.917 c9.317,0,16.875,7.558,16.875,16.875v239.125H42.667V59.547z M314.01,469.339H197.99l10.667-42.667h94.687L314.01,469.339z M469.344,367.131c0,9.317-7.558,16.875-16.875,16.875H320H192H59.531c-9.309,0-16.853-7.55-16.853-16.875v-25.792h426.667 V367.131z"/> <path d="M128,64.005H85.333C73.551,64.005,64,73.557,64,85.339c0,11.782,9.551,21.333,21.333,21.333H128 c11.782,0,21.333-9.551,21.333-21.333C149.333,73.557,139.782,64.005,128,64.005z"/> <path d="M85.333,192.005h21.333c11.782,0,21.333-9.551,21.333-21.333c0-11.782-9.551-21.333-21.333-21.333H85.333 C73.551,149.339,64,158.89,64,170.672C64,182.454,73.551,192.005,85.333,192.005z"/> <path d="M128,234.672H85.333c-11.782,0-21.333,9.551-21.333,21.333c0,11.782,9.551,21.333,21.333,21.333H128 c11.782,0,21.333-9.551,21.333-21.333C149.333,244.223,139.782,234.672,128,234.672z"/> </g> </g> </g> </g>
</svg>