<!DOCTYPE svg PUBLIC "-//W3C//DTD SVG 1.1//EN" "http://www.w3.org/Graphics/SVG/1.1/DTD/svg11.dtd">
<!-- Uploaded to: SVG Repo, www.svgrepo.com, Transformed by: SVG Repo Mixer Tools -->
<svg width="800px" height="800px" viewBox="0 0 26 26" xmlns="http://www.w3.org/2000/svg" fill="#ffffff" stroke="#ffffff">
<g id="SVGRepo_bgCarrier" stroke-width="0"/>
<g id="SVGRepo_tracerCarrier" stroke-linecap="round" stroke-linejoin="round"/>
<g id="SVGRepo_iconCarrier"> <g id="Group_706" data-name="Group 706" transform="translate(-250.1 -150)"> <path id="Path_1495" data-name="Path 1495" d="M264,171h-2v-2h2Zm-5-11a3.886,3.886,0,0,1,4-4c2.7,0,4,1.5,4,4,0,2.1-1,4.5-3,5v3h-2v-4a.945.945,0,0,1,1-1c1.3,0,2-1.7,2-3a2,2,0,0,0-4,0,1,1,0,1,1-2,0Zm4,16a12.654,12.654,0,0,1-6.9-2c-.5-.4-1.9-1.3-1.2-2.3.5-.7,1.5.1,1.5.1A11,11,0,1,0,252,163a15.153,15.153,0,0,0,1.5,5.7c.1.3.6.9-.1,1.5-.4.3-1.2-.1-1.5-.7a11.2,11.2,0,0,1-1.8-6.5A13,13,0,1,1,263,176Z" fill=""/> </g> </g>
</svg>